<svg xmlns="http://www.w3.org/2000/svg" width="10mm" height="10mm" viewBox="0 0 35.433071 35.433071" version="1.1">
    <path style="color:#000000;display:inline;overflow:visible;visibility:visible;opacity:1;fill:#7f7f7f;fill-opacity:1;fill-rule:nonzero;stroke:none;stroke-width:10.14099979;stroke-linecap:butt;stroke-linejoin:miter;stroke-miterlimit:4;stroke-dasharray:none;stroke-dashoffset:0;stroke-opacity:1;marker:none;enable-background:accumulate" d="M 17.525391 2.46875 A 17.716536 17.716536 0 0 1 15.945312 7.6875 L 15.945312 15.945312 L 7.671875 15.945312 A 17.716536 17.716536 0 0 1 2.6855469 17.490234 L 2.6855469 17.539062 L 17.539062 17.539062 L 17.539062 2.46875 L 17.525391 2.46875 z M 17.894531 2.46875 L 17.894531 17.539062 L 32.824219 17.539062 L 32.824219 17.507812 A 17.716536 17.716536 0 0 1 27.746094 15.945312 L 19.488281 15.945312 L 19.488281 7.671875 A 17.716536 17.716536 0 0 1 17.910156 2.46875 L 17.894531 2.46875 z M 2.6855469 17.894531 L 2.6855469 17.935547 A 17.716536 17.716536 0 0 1 7.6875 19.488281 L 15.945312 19.488281 L 15.945312 27.761719 A 17.716536 17.716536 0 0 1 17.453125 32.507812 L 17.539062 32.507812 L 17.539062 17.894531 L 2.6855469 17.894531 z M 17.894531 17.894531 L 17.894531 32.507812 L 17.964844 32.507812 A 17.716536 17.716536 0 0 1 19.488281 27.746094 L 19.488281 19.488281 L 27.761719 19.488281 A 17.716536 17.716536 0 0 1 32.824219 17.931641 L 32.824219 17.894531 L 17.894531 17.894531 z " />
</svg>